<svg width="91" height="91" fill="none" xmlns="http://www.w3.org/2000/svg"><path d="M48.7 68.2H39V44.9h-4.6v-8.2H39V36c0-1.9-.1-3.9.1-5.8.1-3 1.7-5.8 4.2-7.4 1.3-.8 2.7-1.2 4.2-1.2 2.8-.1 5.6 0 8.4 0v8h-5c-1-.1-2 .6-2.1 1.6v.3c-.1 1.7 0 3.4 0 5.1h7.4l-1 8.4h-6.5v23.2z" fill="#fff"/><path d="M45.2 0C20.2 0 0 20.2 0 45.2c0 25 20.2 45.2 45.2 45.2 25 0 45.2-20.2 45.2-45.2C90.3 20.3 70.1 0 45.2 0zm.2 5c22.2 0 40.2 18 40.2 40.2 0 22.2-18 40.2-40.2 40.2-22.2 0-40.2-18-40.2-40.2C5.1 23.1 23.1 5 45.2 5h.2z" fill="#fff"/></svg>