<svg width="92" height="91" viewBox="0 0 92 91" fill="none" xmlns="http://www.w3.org/2000/svg">
<path d="M67.5 61.3H59.6V47.6C59.6 43.8 57.9 41.7 55 41.7C51.8 41.7 49.8 43.9 49.8 47.6V61.4H42V35.8H49.9V38.7C51.7 36 54.7 34.4 57.9 34.4C63.5 34.4 67.6 37.8 67.6 44.8L67.5 61.3ZM33 31.7C30.3 31.7 28.2 29.5 28.2 26.9C28.2 24.2 30.4 22.1 33 22.1C35.7 22.1 37.8 24.3 37.8 26.9C37.8 29.6 35.7 31.7 33 31.7V31.7ZM28.2 61.3H37V35.8H28.2V61.3Z" fill="white"/>
<path d="M46.1 0C21.2 0 0.900024 20.2 0.900024 45.2C0.900024 70.2 21.1 90.4 46.1 90.4C71.1 90.4 91.3 70.2 91.3 45.2C91.3 20.3 71.1 0 46.1 0ZM46.3 5C68.5 5 86.5 23 86.5 45.2C86.5 67.4 68.5 85.4 46.3 85.4C24.1 85.4 6.10002 67.4 6.10002 45.2C6.10002 23.1 24 5 46.2 5H46.3Z" fill="white"/>
</svg>
