<svg xmlns="http://www.w3.org/2000/svg" id="icon-social-linkedin" viewBox="0 0 90.3 90.4" xml:space="preserve"><g id="fLayer_2_1_"><g id="fLayer_1-2"><g id="fPage-1"><g id="fDribbble-Light-Preview"><g id="ficons"><path id="flinkedin-_161_" class="fst1" d="M66.5 61.3h-7.9V47.6c0-3.8-1.7-5.9-4.6-5.9-3.2 0-5.2 2.2-5.2 5.9v13.8H41V35.8h7.9v2.9c1.8-2.7 4.8-4.3 8-4.3 5.6 0 9.7 3.4 9.7 10.4l-.1 16.5zM32 31.7c-2.7 0-4.8-2.2-4.8-4.8 0-2.7 2.2-4.8 4.8-4.8 2.7 0 4.8 2.2 4.8 4.8 0 2.7-2.1 4.8-4.8 4.8zm-4.8 29.6H36V35.8h-8.8v25.5z"></path></g></g></g><path id="frect853-3" class="fst0" d="M45.1 0C20.2 0-.1 20.2-.1 45.2s20.2 45.2 45.2 45.2c25 0 45.2-20.2 45.2-45.2C90.3 20.3 70.1 0 45.1 0zm.2 5c22.2 0 40.2 18 40.2 40.2s-18 40.2-40.2 40.2c-22.2 0-40.2-18-40.2-40.2C5.1 23.1 23 5 45.2 5h.1z"></path></g></g></svg>