<svg xmlns="http://www.w3.org/2000/svg" id="icon-social-twitter" viewBox="0 0 89.7 90.4" xml:space="preserve"><g id="gLayer_2_1_"><g id="gLayer_1-2"><path class="gst0" d="M22.8 61.3c5.1.5 10.2-1 14.3-4.1-4.2-.1-7.9-2.9-9.2-6.8 1.4.2 2.9.2 4.3-.2-4.5-1-7.8-5.1-7.7-9.7 1.4.7 2.8 1.1 4.4 1.2-2.4-1.6-3.9-4.2-4.3-7-.2-2.1.2-4.2 1.3-6 5 6.1 12.4 9.8 20.3 10.2-.1-.6-.1-1.1-.2-1.7-.3-3.7 1.6-7.3 4.8-9.1 3.7-2.2 8.5-1.7 11.6 1.3.3.3.8.5 1.2.3 1.9-.5 3.7-1.2 5.4-2.2 0 1.2-1.7 3.4-3.9 5.3.6-.1 1.2-.2 1.7-.3s1.2-.3 1.8-.5 1.1-.4 1.7-.6l.1.1c-.8.9-1.5 1.9-2.4 2.7-.7.7-1.4 1.3-2.2 1.9-.2.1-.3.4-.3.7.2 6.6-2 13.1-6.1 18.3-4 5.3-9.9 8.9-16.5 10-5.1 1-10.3.5-15.1-1.3-1.7-.6-3.4-1.5-5-2.5z"></path><path id="grect853-2" class="gst0" d="M44.5 0C19.5 0-.7 20.2-.7 45.2s20.2 45.2 45.2 45.2 45.2-20.2 45.2-45.2C89.6 20.3 69.4 0 44.5 0zm.2 5c22.2 0 40.2 18 40.2 40.2s-18 40.2-40.2 40.2-40.3-18-40.3-40.2C4.4 23 22.3 5 44.5 5h.2z"></path></g></g></svg>