<svg xmlns="http://www.w3.org/2000/svg" id="icon-social-youtube" viewBox="0 0 90.4 90.4" xml:space="preserve"><g id="hLayer_2_1_"><g id="hLayer_1-2"><path class="hst0" d="M45.7 58.6c-4.3 0-8.6.1-13 0s-6.8-2.6-7-6.9c-.2-4.8-.2-9.6 0-14.5.1-4.2 2.7-6.5 6.7-6.5 8.8-.2 17.6-.1 26.4 0 4.1 0 6.5 2.5 6.7 6.6.2 4.8.2 9.6 0 14.5-.1 4.4-2.7 6.7-7 6.8s-8.4 0-12.8 0zM41 37.4V52l12.4-7.5L41 37.4z"></path><path id="hrect853-4" class="hst0" d="M45.2 0C20.2 0 0 20.2 0 45.2s20.2 45.2 45.2 45.2c25 0 45.2-20.2 45.2-45.2C90.4 20.3 70.1 0 45.2 0zm.2 5c22.2 0 40.2 18 40.2 40.2s-18 40.2-40.2 40.2-40.2-18-40.2-40.2C5.2 23 23.1 5 45.3 5h.1z"></path></g></g></svg>