<svg width="91" height="91" viewBox="0 0 91 91" fill="none" xmlns="http://www.w3.org/2000/svg">
<path d="M23.5 61.3C28.6 61.8 33.7 60.3 37.8 57.2C33.6 57.1 29.9 54.3 28.6 50.4C30 50.6 31.5 50.6 32.9 50.2C28.4 49.2 25.1 45.1 25.2 40.5C26.6 41.2 28 41.6 29.6 41.7C27.2 40.1 25.7 37.5 25.3 34.7C25.1 32.6 25.5 30.5 26.6 28.7C31.6 34.8 39 38.5 46.9 38.9C46.8 38.3 46.8 37.8 46.7 37.2C46.4 33.5 48.3 29.9 51.5 28.1C55.2 25.9 60 26.4 63.1 29.4C63.4 29.7 63.9 29.9 64.3 29.7C66.2 29.2 68 28.5 69.7 27.5C69.7 28.7 68 30.9 65.8 32.8C66.4 32.7 67 32.6 67.5 32.5C68 32.4 68.7 32.2 69.3 32C69.9 31.8 70.4 31.6 71 31.4L71.1 31.5C70.3 32.4 69.6 33.4 68.7 34.2C68 34.9 67.3 35.5 66.5 36.1C66.3 36.2 66.2 36.5 66.2 36.8C66.4 43.4 64.2 49.9 60.1 55.1C56.1 60.4 50.2 64 43.6 65.1C38.5 66.1 33.3 65.6 28.5 63.8C26.8 63.2 25.1 62.3 23.5 61.3V61.3Z" fill="white"/>
<path d="M45.2 0C20.2 0 0 20.2 0 45.2C0 70.2 20.2 90.4 45.2 90.4C70.2 90.4 90.4 70.2 90.4 45.2C90.3 20.3 70.1 0 45.2 0ZM45.4 5C67.6 5 85.6 23 85.6 45.2C85.6 67.4 67.6 85.4 45.4 85.4C23.2 85.4 5.1 67.4 5.1 45.2C5.1 23 23 5 45.2 5H45.4Z" fill="white"/>
</svg>
