<svg width="91" height="91" viewBox="0 0 91 91" fill="none" xmlns="http://www.w3.org/2000/svg">
<path d="M45.7 58.6C41.4 58.6 37.1 58.7 32.7 58.6C28.3 58.5 25.9 56 25.7 51.7C25.5 46.9 25.5 42.1 25.7 37.2C25.8 33 28.4 30.7 32.4 30.7C41.2 30.5 50 30.6 58.8 30.7C62.9 30.7 65.3 33.2 65.5 37.3C65.7 42.1 65.7 46.9 65.5 51.8C65.4 56.2 62.8 58.5 58.5 58.6C54.2 58.7 50.1 58.6 45.7 58.6ZM41 37.4V52L53.4 44.5L41 37.4Z" fill="white"/>
<path d="M45.2 0C20.2 0 0 20.2 0 45.2C0 70.2 20.2 90.4 45.2 90.4C70.2 90.4 90.4 70.2 90.4 45.2C90.4 20.3 70.1 0 45.2 0ZM45.4 5C67.6 5 85.6 23 85.6 45.2C85.6 67.4 67.6 85.4 45.4 85.4C23.2 85.4 5.2 67.4 5.2 45.2C5.2 23 23.1 5 45.3 5H45.4V5Z" fill="white"/>
</svg>
